<svg width="60" height="60" viewBox="0 0 60 60" fill="none" xmlns="http://www.w3.org/2000/svg">
  <!-- Shadow -->
  <ellipse cx="30" cy="55" rx="15" ry="3" fill="black" opacity="0.2"/>
  
  <!-- Main hat body -->
  <path d="M15 35 L30 10 L45 35 Z" fill="#C41E3A"/>
  
  <!-- Darker shading on left side -->
  <path d="M15 35 L30 10 L22.5 22.5 Z" fill="#A01020" opacity="0.5"/>
  
  <!-- Lighter highlight on right side -->
  <path d="M30 10 L45 35 L37.5 22.5 Z" fill="#E63946" opacity="0.4"/>
  
  <!-- White fur trim at bottom -->
  <ellipse cx="30" cy="35" rx="17" ry="4" fill="white"/>
  <ellipse cx="30" cy="35" rx="17" ry="4" fill="#F0F0F0" opacity="0.6"/>
  
  <!-- Fur texture details -->
  <ellipse cx="20" cy="35" rx="3" ry="2.5" fill="white" opacity="0.8"/>
  <ellipse cx="26" cy="35.5" rx="2.5" ry="2" fill="white" opacity="0.7"/>
  <ellipse cx="34" cy="35.5" rx="2.5" ry="2" fill="white" opacity="0.7"/>
  <ellipse cx="40" cy="35" rx="3" ry="2.5" fill="white" opacity="0.8"/>
  
  <!-- White pom-pom at top -->
  <circle cx="30" cy="8" r="5" fill="white"/>
  <circle cx="30" cy="8" r="5" fill="#F0F0F0" opacity="0.7"/>
  
  <!-- Pom-pom texture -->
  <circle cx="28" cy="7" r="1.5" fill="white" opacity="0.9"/>
  <circle cx="32" cy="7.5" r="1.2" fill="white" opacity="0.8"/>
  <circle cx="30" cy="9.5" r="1.3" fill="#E0E0E0" opacity="0.6"/>
  
  <!-- Fold/crease detail on hat -->
  <path d="M28 18 Q30 20 32 18" stroke="#8B1020" stroke-width="0.5" opacity="0.4" fill="none"/>
  <path d="M26 24 Q30 27 34 24" stroke="#8B1020" stroke-width="0.5" opacity="0.3" fill="none"/>
</svg>